<svg width="113" height="114" viewBox="0 0 113 114" fill="none" xmlns="http://www.w3.org/2000/svg">
<g filter="url(#filter0_d_393_16403)">
<rect x="20.5" y="1.37366" width="72" height="72" rx="12" fill="white"/>
<path d="M52.7969 54.108C52.5312 54.0768 52.2031 54.0455 51.8125 54.0143C51.4844 53.983 51.0781 53.9596 50.5938 53.944C50.125 53.9283 49.5938 53.9205 49 53.9205C47.8438 53.9205 46.4688 53.9752 44.875 54.0846C43.2812 54.194 41.5078 54.4049 39.5547 54.7174C40.3828 51.233 40.9531 47.819 41.2656 44.4752C41.5938 41.1315 41.7578 37.9127 41.7578 34.819C41.7578 32.0065 41.6484 29.3658 41.4297 26.8971C41.2109 24.4127 40.9219 22.1237 40.5625 20.0299C42.125 20.3112 43.5234 20.4987 44.7578 20.5924C46.0078 20.6862 47.0859 20.733 47.9922 20.733C48.6172 20.733 49.1641 20.7174 49.6328 20.6862C50.1172 20.6549 50.5156 20.6237 50.8281 20.5924C51.2031 20.5455 51.5234 20.4987 51.7891 20.4518C52.3203 23.5143 52.9844 26.5455 53.7812 29.5455C54.5781 32.5299 55.5625 35.5299 56.7344 38.5455C57.7188 35.4987 58.5 32.4518 59.0781 29.4049C59.6562 26.3424 60.0469 23.2174 60.25 20.0299L60.4375 20.4518L60.25 20.0299C61.8125 20.3112 63.2344 20.4987 64.5156 20.5924C65.7969 20.6862 66.9297 20.733 67.9141 20.733C68.5703 20.733 69.1484 20.7174 69.6484 20.6862C70.1484 20.6549 70.5781 20.6237 70.9375 20.5924C71.3438 20.5455 71.6953 20.4987 71.9922 20.4518C71.6641 22.0143 71.4141 23.8658 71.2422 26.0065C71.0703 28.1315 70.9844 30.4127 70.9844 32.8502C70.9844 34.5846 71.0312 36.3737 71.125 38.2174C71.2188 40.0455 71.3594 41.8737 71.5469 43.7018C71.75 45.5143 72.0078 47.3033 72.3203 49.069C72.6328 50.8346 73.0078 52.5143 73.4453 54.108C73.1328 54.0768 72.7734 54.0455 72.3672 54.0143C72.0078 53.983 71.5859 53.9596 71.1016 53.944C70.6172 53.9283 70.0547 53.9205 69.4141 53.9205C68.1953 53.9205 66.7578 53.9752 65.1016 54.0846C63.4609 54.194 61.6641 54.4049 59.7109 54.7174C60.1016 53.9362 60.4219 52.9362 60.6719 51.7174C60.9375 50.4987 61.1484 49.2018 61.3047 47.8268C61.4766 46.4518 61.6016 45.0846 61.6797 43.7252C61.7734 42.3502 61.8359 41.1237 61.8672 40.0455C61.4141 41.0143 60.9766 41.9987 60.5547 42.9987C60.1328 43.9987 59.6953 45.069 59.2422 46.2096C58.8047 47.3346 58.3438 48.5533 57.8594 49.8658C57.375 51.1783 56.8438 52.6393 56.2656 54.2487C55.6719 52.6393 55.1328 51.1783 54.6484 49.8658C54.1641 48.5533 53.7031 47.3346 53.2656 46.2096C52.8438 45.0846 52.4219 44.0221 52 43.0221C51.5938 42.0065 51.1719 40.9987 50.7344 39.9987C50.875 42.4674 51.1094 44.9049 51.4375 47.3112C51.7656 49.7018 52.2188 51.9674 52.7969 54.108Z" fill="#4B164C"/>
<rect x="20.5" y="1.37366" width="72" height="72" rx="12" stroke="url(#paint0_linear_393_16403)" stroke-opacity="0.3"/>
</g>
<defs>
<filter id="filter0_d_393_16403" x="0" y="0.873657" width="113" height="113" filterUnits="userSpaceOnUse" color-interpolation-filters="sRGB">
<feFlood flood-opacity="0" result="BackgroundImageFix"/>
<feColorMatrix in="SourceAlpha" type="matrix" values="0 0 0 0 0 0 0 0 0 0 0 0 0 0 0 0 0 0 127 0" result="hardAlpha"/>
<feOffset dy="20"/>
<feGaussianBlur stdDeviation="10"/>
<feColorMatrix type="matrix" values="0 0 0 0 0.269263 0 0 0 0 0.166562 0 0 0 0 0.4875 0 0 0 0.15 0"/>
<feBlend mode="normal" in2="BackgroundImageFix" result="effect1_dropShadow_393_16403"/>
<feBlend mode="normal" in="SourceGraphic" in2="effect1_dropShadow_393_16403" result="shape"/>
</filter>
<linearGradient id="paint0_linear_393_16403" x1="56.5" y1="1.37366" x2="56.5" y2="73.3737" gradientUnits="userSpaceOnUse">
<stop stop-color="white"/>
<stop offset="1" stop-color="white" stop-opacity="0"/>
</linearGradient>
</defs>
</svg>
