<svg width="394" height="852" viewBox="0 0 394 852" fill="none" xmlns="http://www.w3.org/2000/svg">
<g clip-path="url(#clip0_393_16385)">
<rect width="393" height="852" transform="translate(0.5)" fill="url(#paint0_linear_393_16385)"/>
<path d="M478.642 68.2725C268.922 169.309 142.357 -68.5337 246.23 -202.821C290.432 -259.966 350.876 -322.083 443.083 -257.678C518.404 -205.068 556.851 -277.863 620.871 -266.464C675.762 -256.689 743.05 -276.041 789.772 -245.597C887.446 -181.955 953.293 -178.056 879.764 -23.7553C868.444 -0.000610352 889.47 80.3388 796.673 104.244C685.831 132.798 632.07 -14.9124 478.642 68.2725Z" fill="url(#paint1_radial_393_16385)"/>
<path opacity="0.5" d="M680.31 -293.833C387.444 -462.876 167.138 -140.406 301.626 44.6934C390.029 166.365 490.487 200.082 609.872 111.307C707.392 38.79 752.313 119.542 824.807 129.116C952.331 145.956 973.423 61.2321 1154.8 60.6595C1336.18 60.0868 1351.07 -140.479 1295.26 -261.132C1239.44 -381.784 1086.1 -420.054 994.988 -379.365C816.462 -299.643 878.959 -179.172 680.31 -293.833Z" fill="url(#paint2_linear_393_16385)"/>
<path d="M-223.705 666.399C-13.986 767.436 112.579 529.593 8.70662 395.306C-35.4952 338.161 -95.9392 276.044 -188.147 340.449C-263.467 393.059 -301.914 320.264 -365.934 331.663C-420.826 341.438 -488.113 322.086 -534.836 352.53C-632.509 416.172 -698.356 420.071 -624.827 574.372C-613.507 598.126 -634.534 678.466 -541.737 702.371C-430.894 730.925 -377.133 583.215 -223.705 666.399Z" fill="url(#paint3_radial_393_16385)"/>
<path opacity="0.5" d="M69.8203 824.294C-223.046 655.251 -443.352 977.721 -308.864 1162.82C-220.461 1284.49 -120.003 1318.21 -0.618195 1229.43C96.9019 1156.92 141.822 1237.67 214.317 1247.24C341.84 1264.08 362.933 1179.36 544.31 1178.79C725.688 1178.21 740.576 977.648 684.765 856.995C628.954 736.343 475.614 698.073 384.498 738.762C205.972 818.484 268.469 938.955 69.8203 824.294Z" fill="url(#paint4_linear_393_16385)"/>
<g filter="url(#filter0_b_393_16385)">
<rect x="0.5" width="393" height="852" fill="white" fill-opacity="0.4"/>
</g>
</g>
<defs>
<filter id="filter0_b_393_16385" x="-99.5" y="-100" width="593" height="1052" filterUnits="userSpaceOnUse" color-interpolation-filters="sRGB">
<feFlood flood-opacity="0" result="BackgroundImageFix"/>
<feGaussianBlur in="BackgroundImageFix" stdDeviation="50"/>
<feComposite in2="SourceAlpha" operator="in" result="effect1_backgroundBlur_393_16385"/>
<feBlend mode="normal" in="SourceGraphic" in2="effect1_backgroundBlur_393_16385" result="shape"/>
</filter>
<linearGradient id="paint0_linear_393_16385" x1="196.5" y1="0" x2="196.5" y2="852" gradientUnits="userSpaceOnUse">
<stop stop-color="white"/>
<stop offset="1" stop-color="#FAEFFA"/>
</linearGradient>
<radialGradient id="paint1_radial_393_16385" cx="0" cy="0" r="1" gradientUnits="userSpaceOnUse" gradientTransform="translate(433.055 -112.654) rotate(63.1292) scale(254.089 390.208)">
<stop stop-color="#FF009F"/>
<stop offset="0.97807" stop-color="#FAEAA5"/>
</radialGradient>
<linearGradient id="paint2_linear_393_16385" x1="1127.21" y1="64.6351" x2="1037.92" y2="-476.75" gradientUnits="userSpaceOnUse">
<stop stop-color="#4BB8F9"/>
<stop offset="0.5362" stop-color="#EE80D2"/>
<stop offset="1" stop-color="#F6C6EC"/>
</linearGradient>
<radialGradient id="paint3_radial_393_16385" cx="0" cy="0" r="1" gradientUnits="userSpaceOnUse" gradientTransform="translate(-178.118 485.473) rotate(116.871) scale(254.089 390.208)">
<stop stop-color="#FF009F"/>
<stop offset="0.97807" stop-color="#FAEAA5"/>
</radialGradient>
<linearGradient id="paint4_linear_393_16385" x1="516.723" y1="1182.76" x2="427.426" y2="641.377" gradientUnits="userSpaceOnUse">
<stop stop-color="#4BB8F9"/>
<stop offset="0.5362" stop-color="#EE80D2"/>
<stop offset="1" stop-color="#F6C6EC"/>
</linearGradient>
<clipPath id="clip0_393_16385">
<rect width="393" height="852" fill="white" transform="translate(0.5)"/>
</clipPath>
</defs>
</svg>
