<svg width="141" height="140" viewBox="0 0 141 140" fill="none" xmlns="http://www.w3.org/2000/svg">
<g filter="url(#filter0_d_393_15817)">
<circle cx="70.5" cy="70" r="30" transform="rotate(180 70.5 70)" fill="white"/>
</g>
<path d="M68.5001 72.9999L69.5001 72.9999C69.5001 72.7347 69.3947 72.4804 69.2072 72.2928C69.0196 72.1053 68.7653 71.9999 68.5001 71.9999L68.5001 72.9999ZM68.5001 76.9999L67.5001 76.9999L68.5001 76.9999ZM71.5001 79.9999L71.5001 80.9999C71.8952 80.9999 72.2534 80.7672 72.4139 80.4061L71.5001 79.9999ZM75.5001 70.9999L76.4139 71.4061C76.4707 71.2782 76.5001 71.1399 76.5001 70.9999L75.5001 70.9999ZM75.5001 59.9999L76.5001 59.9999C76.5001 59.4477 76.0523 58.9999 75.5001 58.9999L75.5001 59.9999ZM64.2201 59.9999L64.2088 60.9999L64.2201 60.9999L64.2201 59.9999ZM62.2201 61.6999L63.2085 61.8515L63.2088 61.8499L62.2201 61.6999ZM60.8401 70.6999L59.8516 70.5484L59.8514 70.5499L60.8401 70.6999ZM62.8401 72.9999L62.8401 71.9999L62.8287 72L62.8401 72.9999ZM75.5001 59.9999L75.5001 58.9999C74.9478 58.9999 74.5001 59.4477 74.5001 59.9999L75.5001 59.9999ZM75.5001 70.9999L74.5001 70.9999C74.5001 71.5522 74.9478 71.9999 75.5001 71.9999L75.5001 70.9999ZM67.5001 72.9999L67.5001 76.9999L69.5001 76.9999L69.5001 72.9999L67.5001 72.9999ZM67.5001 76.9999C67.5001 79.2091 69.2909 80.9999 71.5001 80.9999L71.5001 78.9999C70.3955 78.9999 69.5001 78.1045 69.5001 76.9999L67.5001 76.9999ZM72.4139 80.4061L76.4139 71.4061L74.5862 70.5938L70.5862 79.5938L72.4139 80.4061ZM76.5001 70.9999L76.5001 59.9999L74.5001 59.9999L74.5001 70.9999L76.5001 70.9999ZM75.5001 58.9999L64.2201 58.9999L64.2201 60.9999L75.5001 60.9999L75.5001 58.9999ZM64.2314 59C62.7354 58.9831 61.4557 60.0709 61.2314 61.55L63.2088 61.8499C63.2835 61.3568 63.7101 60.9942 64.2088 60.9999L64.2314 59ZM61.2316 61.5484L59.8516 70.5484L61.8285 70.8515L63.2085 61.8515L61.2316 61.5484ZM59.8514 70.5499C59.7193 71.4201 59.976 72.3044 60.5536 72.9686L62.0628 71.6562C61.8703 71.4349 61.7847 71.1401 61.8287 70.85L59.8514 70.5499ZM60.5536 72.9686C61.1312 73.6328 61.9713 74.0098 62.8514 73.9999L62.8287 72C62.5354 72.0033 62.2553 71.8776 62.0628 71.6562L60.5536 72.9686ZM62.8401 73.9999L68.5001 73.9999L68.5001 71.9999L62.8401 71.9999L62.8401 73.9999ZM75.5001 60.9999L78.5001 60.9999L78.5001 58.9999L75.5001 58.9999L75.5001 60.9999ZM78.5001 60.9999C79.0523 60.9999 79.5001 61.4477 79.5001 61.9999L81.5001 61.9999C81.5001 60.3431 80.1569 58.9999 78.5001 58.9999L78.5001 60.9999ZM79.5001 61.9999L79.5001 68.9999L81.5001 68.9999L81.5001 61.9999L79.5001 61.9999ZM79.5001 68.9999C79.5001 69.5522 79.0523 69.9999 78.5001 69.9999L78.5001 71.9999C80.1569 71.9999 81.5001 70.6568 81.5001 68.9999L79.5001 68.9999ZM78.5001 69.9999L75.5001 69.9999L75.5001 71.9999L78.5001 71.9999L78.5001 69.9999ZM76.5001 70.9999L76.5001 59.9999L74.5001 59.9999L74.5001 70.9999L76.5001 70.9999Z" fill="#FF0F00"/>
<defs>
<filter id="filter0_d_393_15817" x="0.5" y="0" width="140" height="140" filterUnits="userSpaceOnUse" color-interpolation-filters="sRGB">
<feFlood flood-opacity="0" result="BackgroundImageFix"/>
<feColorMatrix in="SourceAlpha" type="matrix" values="0 0 0 0 0 0 0 0 0 0 0 0 0 0 0 0 0 0 127 0" result="hardAlpha"/>
<feOffset/>
<feGaussianBlur stdDeviation="20"/>
<feColorMatrix type="matrix" values="0 0 0 0 0 0 0 0 0 0 0 0 0 0 0 0 0 0 0.03 0"/>
<feBlend mode="normal" in2="BackgroundImageFix" result="effect1_dropShadow_393_15817"/>
<feBlend mode="normal" in="SourceGraphic" in2="effect1_dropShadow_393_15817" result="shape"/>
</filter>
</defs>
</svg>
