<svg width="51" height="52" viewBox="0 0 51 52" fill="none" xmlns="http://www.w3.org/2000/svg">
<path d="M17.8313 37.021L18.4517 37.4247C22.8855 40.3093 28.5665 40.4488 33.1364 37.7852L34.4477 37.021" stroke="#939ABE" stroke-width="3" stroke-linecap="round" stroke-linejoin="round"/>
<path d="M26.9576 18.1235V27.083C26.9576 28.7186 25.9618 30.1895 24.4432 30.7969L23.0159 31.3679" stroke="#939ABE" stroke-width="3" stroke-linecap="round" stroke-linejoin="round"/>
<path d="M37.7207 2H44.1512C46.9126 2 49.1512 4.23858 49.1512 7V14.6465" stroke="#939ABE" stroke-width="3" stroke-linecap="round"/>
<path d="M13.2791 2H6.84857C4.08715 2 1.84857 4.23858 1.84857 7V14.6465" stroke="#939ABE" stroke-width="3" stroke-linecap="round"/>
<path d="M37.7207 49.6675H44.1512C46.9126 49.6675 49.1512 47.4289 49.1512 44.6675V37.021" stroke="#939ABE" stroke-width="3" stroke-linecap="round"/>
<path d="M13.2791 49.6675H6.84857C4.08715 49.6675 1.84857 47.4289 1.84857 44.6675V37.021" stroke="#939ABE" stroke-width="3" stroke-linecap="round"/>
<rect x="35.1565" y="17.8081" width="3" height="6.62216" rx="1.5" fill="#939ABE"/>
<rect x="14.1863" y="17.8081" width="3" height="6.62216" rx="1.5" fill="#939ABE"/>
</svg>
