<svg width="51" height="52" viewBox="0 0 51 52" fill="none" xmlns="http://www.w3.org/2000/svg">
<path d="M17.8312 37.3947L18.4517 37.7983C22.8854 40.683 28.5664 40.8225 33.1364 38.1589L34.4476 37.3947" stroke="#939ABE" stroke-width="3" stroke-linecap="round" stroke-linejoin="round"/>
<path d="M26.9577 18.4971V27.4566C26.9577 29.0922 25.9619 30.5631 24.4432 31.1705L23.0159 31.7415" stroke="#939ABE" stroke-width="3" stroke-linecap="round" stroke-linejoin="round"/>
<path d="M37.7208 2.37366H44.1512C46.9127 2.37366 49.1512 4.61223 49.1512 7.37366V15.0201" stroke="#939ABE" stroke-width="3" stroke-linecap="round"/>
<path d="M13.2791 2.37366H6.84863C4.08721 2.37366 1.84863 4.61223 1.84863 7.37366V15.0201" stroke="#939ABE" stroke-width="3" stroke-linecap="round"/>
<path d="M37.7208 50.0411H44.1512C46.9127 50.0411 49.1512 47.8025 49.1512 45.0411V37.3946" stroke="#939ABE" stroke-width="3" stroke-linecap="round"/>
<path d="M13.2791 50.0411H6.84863C4.08721 50.0411 1.84863 47.8025 1.84863 45.0411V37.3946" stroke="#939ABE" stroke-width="3" stroke-linecap="round"/>
<rect x="35.1566" y="18.1818" width="3" height="6.62216" rx="1.5" fill="#939ABE"/>
<rect x="14.1863" y="18.1818" width="3" height="6.62216" rx="1.5" fill="#939ABE"/>
</svg>
