<svg width="141" height="140" viewBox="0 0 141 140" fill="none" xmlns="http://www.w3.org/2000/svg">
<g filter="url(#filter0_d_393_15820)">
<circle cx="70.5" cy="70" r="30" fill="white"/>
</g>
<path d="M72.4999 67.0001H71.4999C71.4999 67.5523 71.9477 68.0001 72.4999 68.0001V67.0001ZM72.4999 63.0001H73.4999H72.4999ZM69.4999 60.0001V59.0001C69.1048 59.0001 68.7466 59.2328 68.5861 59.5939L69.4999 60.0001ZM65.4999 69.0001L64.5861 68.5939C64.5293 68.7218 64.4999 68.8601 64.4999 69.0001H65.4999ZM65.4999 80.0001H64.4999C64.4999 80.5523 64.9477 81.0001 65.4999 81.0001V80.0001ZM76.7799 80.0001L76.7912 79.0001H76.7799V80.0001ZM78.7799 78.3001L77.7915 78.1485L77.7912 78.1501L78.7799 78.3001ZM80.1599 69.3001L81.1484 69.4516L81.1486 69.4501L80.1599 69.3001ZM78.1599 67.0001V68.0001L78.1713 68L78.1599 67.0001ZM65.4999 80.0001V81.0001C66.0522 81.0001 66.4999 80.5523 66.4999 80.0001H65.4999ZM65.4999 69.0001H66.4999C66.4999 68.4478 66.0522 68.0001 65.4999 68.0001V69.0001ZM73.4999 67.0001V63.0001H71.4999V67.0001H73.4999ZM73.4999 63.0001C73.4999 60.7909 71.7091 59.0001 69.4999 59.0001V61.0001C70.6045 61.0001 71.4999 61.8955 71.4999 63.0001H73.4999ZM68.5861 59.5939L64.5861 68.5939L66.4138 69.4062L70.4138 60.4062L68.5861 59.5939ZM64.4999 69.0001V80.0001H66.4999V69.0001H64.4999ZM65.4999 81.0001H76.7799V79.0001H65.4999V81.0001ZM76.7686 81C78.2646 81.0169 79.5443 79.9291 79.7686 78.45L77.7912 78.1501C77.7165 78.6432 77.2899 79.0058 76.7912 79.0001L76.7686 81ZM79.7684 78.4516L81.1484 69.4516L79.1715 69.1485L77.7915 78.1485L79.7684 78.4516ZM81.1486 69.4501C81.2807 68.5799 81.024 67.6956 80.4464 67.0314L78.9372 68.3438C79.1297 68.5652 79.2153 68.8599 79.1713 69.15L81.1486 69.4501ZM80.4464 67.0314C79.8688 66.3672 79.0287 65.9902 78.1486 66.0001L78.1713 68C78.4646 67.9967 78.7447 68.1224 78.9372 68.3438L80.4464 67.0314ZM78.1599 66.0001H72.4999V68.0001H78.1599V66.0001ZM65.4999 79.0001H62.4999V81.0001H65.4999V79.0001ZM62.4999 79.0001C61.9477 79.0001 61.4999 78.5523 61.4999 78.0001H59.4999C59.4999 79.6569 60.8431 81.0001 62.4999 81.0001V79.0001ZM61.4999 78.0001V71.0001H59.4999V78.0001H61.4999ZM61.4999 71.0001C61.4999 70.4478 61.9477 70.0001 62.4999 70.0001V68.0001C60.8431 68.0001 59.4999 69.3432 59.4999 71.0001H61.4999ZM62.4999 70.0001H65.4999V68.0001H62.4999V70.0001ZM64.4999 69.0001V80.0001H66.4999V69.0001H64.4999Z" fill="#2AAC7A"/>
<defs>
<filter id="filter0_d_393_15820" x="0.5" y="0" width="140" height="140" filterUnits="userSpaceOnUse" color-interpolation-filters="sRGB">
<feFlood flood-opacity="0" result="BackgroundImageFix"/>
<feColorMatrix in="SourceAlpha" type="matrix" values="0 0 0 0 0 0 0 0 0 0 0 0 0 0 0 0 0 0 127 0" result="hardAlpha"/>
<feOffset/>
<feGaussianBlur stdDeviation="20"/>
<feColorMatrix type="matrix" values="0 0 0 0 0 0 0 0 0 0 0 0 0 0 0 0 0 0 0.03 0"/>
<feBlend mode="normal" in2="BackgroundImageFix" result="effect1_dropShadow_393_15820"/>
<feBlend mode="normal" in="SourceGraphic" in2="effect1_dropShadow_393_15820" result="shape"/>
</filter>
</defs>
</svg>
