<svg width="44" height="44" viewBox="0 0 44 44" fill="none" xmlns="http://www.w3.org/2000/svg">
<rect width="44" height="44" rx="22" fill="white"/>
<path d="M33.4702 19.7089H32.5279V19.6604H22V24.3394H28.611C27.6465 27.0632 25.0549 29.0185 22 29.0185C18.124 29.0185 14.9814 25.8759 14.9814 21.9999C14.9814 18.1239 18.124 14.9813 22 14.9813C23.7892 14.9813 25.4169 15.6563 26.6563 16.7588L29.965 13.4501C27.8758 11.503 25.0812 10.3022 22 10.3022C15.54 10.3022 10.3024 15.5399 10.3024 21.9999C10.3024 28.4599 15.54 33.6976 22 33.6976C28.4601 33.6976 33.6977 28.4599 33.6977 21.9999C33.6977 21.2156 33.617 20.45 33.4702 19.7089Z" fill="#FFC107"/>
<path d="M11.6504 16.5552L15.4937 19.3738C16.5336 16.7991 19.0521 14.9813 21.9993 14.9813C23.7885 14.9813 25.4162 15.6563 26.6556 16.7588L29.9643 13.4501C27.8751 11.503 25.0805 10.3022 21.9993 10.3022C17.5062 10.3022 13.6097 12.8389 11.6504 16.5552Z" fill="#FF3D00"/>
<path d="M22.0001 33.6979C25.0217 33.6979 27.7671 32.5416 29.8428 30.6612L26.2224 27.5976C25.0085 28.5207 23.5252 29.02 22.0001 29.0188C18.9576 29.0188 16.3742 27.0788 15.4009 24.3713L11.5863 27.3104C13.5223 31.0987 17.4539 33.6979 22.0001 33.6979Z" fill="#4CAF50"/>
<path d="M33.4701 19.7089H32.5279V19.6604H22V24.3395H28.6109C28.1496 25.6358 27.3186 26.7686 26.2205 27.5979L26.2223 27.5967L29.8427 30.6603C29.5865 30.8931 33.6977 27.8488 33.6977 21.9999C33.6977 21.2156 33.617 20.45 33.4701 19.7089Z" fill="#1976D2"/>
</svg>
