<svg width="45" height="45" viewBox="0 0 45 45" fill="none" xmlns="http://www.w3.org/2000/svg">
<rect x="0.5" y="0.5" width="44" height="44" rx="22" fill="white"/>
<path d="M33.9701 20.2088H33.0279V20.1603H22.5V24.8393H29.1109C28.1464 27.5631 25.5548 29.5184 22.5 29.5184C18.6239 29.5184 15.4814 26.3758 15.4814 22.4998C15.4814 18.6238 18.6239 15.4812 22.5 15.4812C24.2891 15.4812 25.9169 16.1562 27.1562 17.2587L30.4649 13.95C28.3757 12.0029 25.5811 10.8021 22.5 10.8021C16.0399 10.8021 10.8023 16.0398 10.8023 22.4998C10.8023 28.9598 16.0399 34.1975 22.5 34.1975C28.96 34.1975 34.1976 28.9598 34.1976 22.4998C34.1976 21.7155 34.1169 20.9499 33.9701 20.2088Z" fill="#FFC107"/>
<path d="M12.1503 17.0551L15.9936 19.8737C17.0335 17.299 19.552 15.4812 22.4993 15.4812C24.2884 15.4812 25.9161 16.1562 27.1555 17.2587L30.4642 13.95C28.375 12.0029 25.5804 10.8021 22.4993 10.8021C18.0062 10.8021 14.1097 13.3388 12.1503 17.0551Z" fill="#FF3D00"/>
<path d="M22.5001 34.1979C25.5217 34.1979 28.2671 33.0416 30.3428 31.1612L26.7224 28.0975C25.5085 29.0207 24.0252 29.52 22.5001 29.5188C19.4576 29.5188 16.8742 27.5787 15.9009 24.8713L12.0863 27.8104C14.0223 31.5986 17.9539 34.1979 22.5001 34.1979Z" fill="#4CAF50"/>
<path d="M33.9701 20.2088H33.0279V20.1603H22.5V24.8393H29.1109C28.6496 26.1357 27.8186 27.2685 26.7205 28.0977L26.7223 28.0965L30.3427 31.1602C30.0865 31.3929 34.1977 28.3486 34.1977 22.4998C34.1977 21.7155 34.117 20.9499 33.9701 20.2088Z" fill="#1976D2"/>
</svg>
