<svg width="12" height="12" viewBox="0 0 12 12" fill="none" xmlns="http://www.w3.org/2000/svg">
<g clip-path="url(#clip0_1002_2712)">
<path d="M9.84838 5.1817C9.84838 8.46342 5.62902 11.2763 5.62902 11.2763C5.62902 11.2763 1.40967 8.46342 1.40967 5.1817C1.40967 4.06266 1.85421 2.98945 2.64549 2.19817C3.43677 1.40689 4.50998 0.962349 5.62902 0.962349C6.74806 0.962349 7.82127 1.40689 8.61256 2.19817C9.40384 2.98945 9.84838 4.06266 9.84838 5.1817Z" stroke="white" stroke-opacity="0.8" stroke-width="0.937634" stroke-linecap="round" stroke-linejoin="round"/>
<path d="M5.62905 6.58815C6.40581 6.58815 7.0355 5.95846 7.0355 5.1817C7.0355 4.40494 6.40581 3.77525 5.62905 3.77525C4.85229 3.77525 4.2226 4.40494 4.2226 5.1817C4.2226 5.95846 4.85229 6.58815 5.62905 6.58815Z" stroke="white" stroke-opacity="0.8" stroke-width="0.937634" stroke-linecap="round" stroke-linejoin="round"/>
</g>
<defs>
<clipPath id="clip0_1002_2712">
<rect width="11.2516" height="11.2516" fill="white" transform="translate(0.00323486 0.493523)"/>
</clipPath>
</defs>
</svg>
