<svg width="12" height="12" viewBox="0 0 12 12" fill="none" xmlns="http://www.w3.org/2000/svg">
<g clip-path="url(#clip0_1002_2133)">
<path d="M9.9387 4.93871C9.9387 8.07741 5.90322 10.7677 5.90322 10.7677C5.90322 10.7677 1.86774 8.07741 1.86774 4.93871C1.86774 3.86843 2.2929 2.84199 3.0497 2.08519C3.8065 1.32839 4.83294 0.903221 5.90322 0.903221C6.9735 0.903221 7.99994 1.32839 8.75674 2.08519C9.51354 2.84199 9.9387 3.86843 9.9387 4.93871Z" stroke="white" stroke-opacity="0.8" stroke-width="0.896774" stroke-linecap="round" stroke-linejoin="round"/>
<path d="M5.90321 6.28387C6.64612 6.28387 7.24837 5.68162 7.24837 4.93871C7.24837 4.19579 6.64612 3.59354 5.90321 3.59354C5.16029 3.59354 4.55804 4.19579 4.55804 4.93871C4.55804 5.68162 5.16029 6.28387 5.90321 6.28387Z" stroke="white" stroke-opacity="0.8" stroke-width="0.896774" stroke-linecap="round" stroke-linejoin="round"/>
</g>
<defs>
<clipPath id="clip0_1002_2133">
<rect width="10.7613" height="10.7613" fill="white" transform="translate(0.522583 0.454834)"/>
</clipPath>
</defs>
</svg>
