<svg width="11" height="11" viewBox="0 0 11 11" fill="none" xmlns="http://www.w3.org/2000/svg">
<g clip-path="url(#clip0_1002_1885)">
<path d="M9.34957 4.78897C9.34957 7.61429 5.71702 10.036 5.71702 10.036C5.71702 10.036 2.08447 7.61429 2.08447 4.78897C2.08447 3.82556 2.46719 2.90161 3.14842 2.22037C3.82966 1.53914 4.75361 1.15643 5.71702 1.15643C6.68043 1.15643 7.60439 1.53914 8.28562 2.22037C8.96686 2.90161 9.34957 3.82556 9.34957 4.78897Z" stroke="white" stroke-opacity="0.8" stroke-width="0.807233" stroke-linecap="round" stroke-linejoin="round"/>
<path d="M5.71701 5.99982C6.38575 5.99982 6.92786 5.45771 6.92786 4.78897C6.92786 4.12024 6.38575 3.57812 5.71701 3.57812C5.04828 3.57812 4.50616 4.12024 4.50616 4.78897C4.50616 5.45771 5.04828 5.99982 5.71701 5.99982Z" stroke="white" stroke-opacity="0.8" stroke-width="0.807233" stroke-linecap="round" stroke-linejoin="round"/>
</g>
<defs>
<clipPath id="clip0_1002_1885">
<rect width="9.6868" height="9.6868" fill="white" transform="translate(0.873596 0.752808)"/>
</clipPath>
</defs>
</svg>
