<svg width="395" height="109" viewBox="0 0 395 109" fill="none" xmlns="http://www.w3.org/2000/svg">
<g filter="url(#filter0_di_120_9294)">
<mask id="path-1-outside-1_120_9294" maskUnits="userSpaceOnUse" x="31.0676" y="15.6582" width="333" height="46" fill="black">
<rect fill="white" x="31.0676" y="15.6582" width="333" height="46"/>
<path fill-rule="evenodd" clip-rule="evenodd" d="M151.029 32.2573C151.972 35.3613 154.544 37.9891 157.788 37.9891H362.382C362.658 37.9891 362.882 38.213 362.882 38.4891C362.882 38.7653 362.658 38.9891 362.382 38.9891H157.885C154.605 38.9891 152.017 41.6716 151.1 44.82C148.436 53.9712 139.986 60.6582 129.975 60.6582C119.964 60.6582 111.514 53.9712 108.849 44.82C107.933 41.6716 105.344 38.9891 102.065 38.9891H32.5676C32.2915 38.9891 32.0676 38.7653 32.0676 38.4891C32.0676 38.213 32.2915 37.9891 32.5676 37.9891H102.161C105.405 37.9891 107.978 35.3613 108.921 32.2573C111.662 23.229 120.051 16.6582 129.975 16.6582C139.899 16.6582 148.288 23.229 151.029 32.2573Z"/>
</mask>
<path fill-rule="evenodd" clip-rule="evenodd" d="M151.029 32.2573C151.972 35.3613 154.544 37.9891 157.788 37.9891H362.382C362.658 37.9891 362.882 38.213 362.882 38.4891C362.882 38.7653 362.658 38.9891 362.382 38.9891H157.885C154.605 38.9891 152.017 41.6716 151.1 44.82C148.436 53.9712 139.986 60.6582 129.975 60.6582C119.964 60.6582 111.514 53.9712 108.849 44.82C107.933 41.6716 105.344 38.9891 102.065 38.9891H32.5676C32.2915 38.9891 32.0676 38.7653 32.0676 38.4891C32.0676 38.213 32.2915 37.9891 32.5676 37.9891H102.161C105.405 37.9891 107.978 35.3613 108.921 32.2573C111.662 23.229 120.051 16.6582 129.975 16.6582C139.899 16.6582 148.288 23.229 151.029 32.2573Z" fill="url(#paint0_linear_120_9294)" fill-opacity="0.5" shape-rendering="crispEdges"/>
<path d="M108.921 32.2573L108.12 32.0143L108.921 32.2573ZM151.1 44.82L150.297 44.5862L151.1 44.82ZM108.849 44.82L108.046 45.0538L108.849 44.82ZM151.029 32.2573L151.829 32.0143L151.029 32.2573ZM362.382 37.1528H157.788V38.8255H362.382V37.1528ZM363.718 38.4891C363.718 37.7511 363.12 37.1528 362.382 37.1528V38.8255C362.196 38.8255 362.045 38.6749 362.045 38.4891H363.718ZM362.382 39.8255C363.12 39.8255 363.718 39.2272 363.718 38.4891H362.045C362.045 38.3034 362.196 38.1528 362.382 38.1528V39.8255ZM157.885 39.8255H362.382V38.1528H157.885V39.8255ZM150.297 44.5862C147.734 53.39 139.604 59.8218 129.975 59.8218V61.4946C140.368 61.4946 149.137 54.5523 151.903 45.0538L150.297 44.5862ZM129.975 59.8218C120.345 59.8218 112.216 53.39 109.652 44.5862L108.046 45.0538C110.812 54.5524 119.582 61.4946 129.975 61.4946V59.8218ZM32.5676 39.8255H102.065V38.1528H32.5676V39.8255ZM31.2313 38.4891C31.2313 39.2272 31.8296 39.8255 32.5676 39.8255V38.1528C32.7534 38.1528 32.904 38.3034 32.904 38.4891H31.2313ZM32.5676 37.1528C31.8295 37.1528 31.2313 37.7511 31.2313 38.4891H32.904C32.904 38.6749 32.7534 38.8255 32.5676 38.8255V37.1528ZM102.161 37.1528H32.5676V38.8255H102.161V37.1528ZM109.721 32.5003C112.358 23.8146 120.429 17.4946 129.975 17.4946V15.8218C119.672 15.8218 110.965 22.6435 108.12 32.0143L109.721 32.5003ZM129.975 17.4946C139.52 17.4946 147.592 23.8146 150.229 32.5003L151.829 32.0143C148.984 22.6435 140.277 15.8218 129.975 15.8218V17.4946ZM102.161 38.8255C105.894 38.8255 108.711 35.8264 109.721 32.5003L108.12 32.0143C107.245 34.8963 104.917 37.1528 102.161 37.1528V38.8255ZM157.885 38.1528C154.111 38.1528 151.279 41.2137 150.297 44.5862L151.903 45.0538C152.755 42.1294 155.099 39.8255 157.885 39.8255V38.1528ZM109.652 44.5862C108.67 41.2137 105.838 38.1528 102.065 38.1528V39.8255C104.85 39.8255 107.195 42.1294 108.046 45.0538L109.652 44.5862ZM157.788 37.1528C155.033 37.1528 152.704 34.8963 151.829 32.0143L150.229 32.5003C151.239 35.8264 154.056 38.8255 157.788 38.8255V37.1528Z" fill="url(#paint1_linear_120_9294)" mask="url(#path-1-outside-1_120_9294)"/>
</g>
<defs>
<filter id="filter0_di_120_9294" x="0.0284519" y="0.220403" width="394.892" height="108.078" filterUnits="userSpaceOnUse" color-interpolation-filters="sRGB">
<feFlood flood-opacity="0" result="BackgroundImageFix"/>
<feColorMatrix in="SourceAlpha" type="matrix" values="0 0 0 0 0 0 0 0 0 0 0 0 0 0 0 0 0 0 127 0" result="hardAlpha"/>
<feOffset dy="15.6014"/>
<feGaussianBlur stdDeviation="15.6014"/>
<feComposite in2="hardAlpha" operator="out"/>
<feColorMatrix type="matrix" values="0 0 0 0 0.556863 0 0 0 0 0.607843 0 0 0 0 0.682353 0 0 0 0.2 0"/>
<feBlend mode="normal" in2="BackgroundImageFix" result="effect1_dropShadow_120_9294"/>
<feBlend mode="normal" in="SourceGraphic" in2="effect1_dropShadow_120_9294" result="shape"/>
<feColorMatrix in="SourceAlpha" type="matrix" values="0 0 0 0 0 0 0 0 0 0 0 0 0 0 0 0 0 0 127 0" result="hardAlpha"/>
<feMorphology radius="0.780069" operator="erode" in="SourceAlpha" result="effect2_innerShadow_120_9294"/>
<feOffset dy="3.12027"/>
<feGaussianBlur stdDeviation="3.90034"/>
<feComposite in2="hardAlpha" operator="arithmetic" k2="-1" k3="1"/>
<feColorMatrix type="matrix" values="0 0 0 0 0.759144 0 0 0 0 0.714583 0 0 0 0 0.875 0 0 0 1 0"/>
<feBlend mode="normal" in2="shape" result="effect2_innerShadow_120_9294"/>
</filter>
<linearGradient id="paint0_linear_120_9294" x1="94.0382" y1="16.019" x2="98.79" y2="71.6559" gradientUnits="userSpaceOnUse">
<stop stop-color="#DEE2E7"/>
<stop offset="1" stop-color="#DBE0E7"/>
</linearGradient>
<linearGradient id="paint1_linear_120_9294" x1="205.463" y1="13.9531" x2="206.794" y2="59.0123" gradientUnits="userSpaceOnUse">
<stop stop-color="white" stop-opacity="0.47"/>
<stop offset="1" stop-color="#F6F1F1"/>
</linearGradient>
</defs>
</svg>
