<svg width="396" height="109" viewBox="0 0 396 109" fill="none" xmlns="http://www.w3.org/2000/svg">
<g filter="url(#filter0_di_1002_2166)">
<mask id="path-1-outside-1_1002_2166" maskUnits="userSpaceOnUse" x="31.5676" y="15.7891" width="333" height="46" fill="black">
<rect fill="white" x="31.5676" y="15.7891" width="333" height="46"/>
<path fill-rule="evenodd" clip-rule="evenodd" d="M151.529 32.3882C152.472 35.4922 155.044 38.12 158.288 38.12H362.882C363.158 38.12 363.382 38.3439 363.382 38.62C363.382 38.8961 363.158 39.12 362.882 39.12H158.385C155.105 39.12 152.517 41.8024 151.6 44.9509C148.936 54.102 140.486 60.7891 130.475 60.7891C120.464 60.7891 112.014 54.102 109.349 44.9509C108.433 41.8024 105.844 39.12 102.565 39.12H33.0676C32.7915 39.12 32.5676 38.8961 32.5676 38.62C32.5676 38.3439 32.7915 38.12 33.0676 38.12H102.661C105.905 38.12 108.478 35.4922 109.421 32.3882C112.162 23.3599 120.551 16.7891 130.475 16.7891C140.399 16.7891 148.788 23.3599 151.529 32.3882Z"/>
</mask>
<path fill-rule="evenodd" clip-rule="evenodd" d="M151.529 32.3882C152.472 35.4922 155.044 38.12 158.288 38.12H362.882C363.158 38.12 363.382 38.3439 363.382 38.62C363.382 38.8961 363.158 39.12 362.882 39.12H158.385C155.105 39.12 152.517 41.8024 151.6 44.9509C148.936 54.102 140.486 60.7891 130.475 60.7891C120.464 60.7891 112.014 54.102 109.349 44.9509C108.433 41.8024 105.844 39.12 102.565 39.12H33.0676C32.7915 39.12 32.5676 38.8961 32.5676 38.62C32.5676 38.3439 32.7915 38.12 33.0676 38.12H102.661C105.905 38.12 108.478 35.4922 109.421 32.3882C112.162 23.3599 120.551 16.7891 130.475 16.7891C140.399 16.7891 148.788 23.3599 151.529 32.3882Z" fill="url(#paint0_linear_1002_2166)" fill-opacity="0.5" shape-rendering="crispEdges"/>
<path d="M109.421 32.3882L108.62 32.1452L109.421 32.3882ZM151.6 44.9509L150.797 44.7171L151.6 44.9509ZM109.349 44.9509L108.546 45.1847L109.349 44.9509ZM151.529 32.3882L152.329 32.1452L151.529 32.3882ZM362.882 37.2836H158.288V38.9564H362.882V37.2836ZM364.218 38.62C364.218 37.882 363.62 37.2836 362.882 37.2836V38.9564C362.696 38.9564 362.545 38.8057 362.545 38.62H364.218ZM362.882 39.9564C363.62 39.9564 364.218 39.358 364.218 38.62H362.545C362.545 38.4342 362.696 38.2836 362.882 38.2836V39.9564ZM158.385 39.9564H362.882V38.2836H158.385V39.9564ZM150.797 44.7171C148.234 53.5208 140.104 59.9527 130.475 59.9527V61.6254C140.868 61.6254 149.637 54.6832 152.403 45.1847L150.797 44.7171ZM130.475 59.9527C120.845 59.9527 112.716 53.5208 110.152 44.7171L108.546 45.1847C111.312 54.6832 120.082 61.6254 130.475 61.6254V59.9527ZM33.0676 39.9564H102.565V38.2836H33.0676V39.9564ZM31.7313 38.62C31.7313 39.358 32.3296 39.9564 33.0676 39.9564V38.2836C33.2534 38.2836 33.404 38.4342 33.404 38.62H31.7313ZM33.0676 37.2836C32.3295 37.2836 31.7313 37.882 31.7313 38.62H33.404C33.404 38.8057 33.2534 38.9564 33.0676 38.9564V37.2836ZM102.661 37.2836H33.0676V38.9564H102.661V37.2836ZM110.221 32.6312C112.858 23.9454 120.929 17.6254 130.475 17.6254V15.9527C120.172 15.9527 111.465 22.7743 108.62 32.1452L110.221 32.6312ZM130.475 17.6254C140.02 17.6254 148.092 23.9454 150.729 32.6312L152.329 32.1452C149.484 22.7743 140.777 15.9527 130.475 15.9527V17.6254ZM102.661 38.9564C106.394 38.9564 109.211 35.9573 110.221 32.6312L108.62 32.1452C107.745 35.0271 105.417 37.2836 102.661 37.2836V38.9564ZM158.385 38.2836C154.611 38.2836 151.779 41.3446 150.797 44.7171L152.403 45.1847C153.255 42.2603 155.599 39.9564 158.385 39.9564V38.2836ZM110.152 44.7171C109.17 41.3446 106.338 38.2836 102.565 38.2836V39.9564C105.35 39.9564 107.695 42.2603 108.546 45.1847L110.152 44.7171ZM158.288 37.2836C155.533 37.2836 153.204 35.0271 152.329 32.1452L150.729 32.6312C151.739 35.9573 154.556 38.9564 158.288 38.9564V37.2836Z" fill="url(#paint1_linear_1002_2166)" mask="url(#path-1-outside-1_1002_2166)"/>
</g>
<defs>
<filter id="filter0_di_1002_2166" x="0.528513" y="0.351323" width="394.892" height="108.078" filterUnits="userSpaceOnUse" color-interpolation-filters="sRGB">
<feFlood flood-opacity="0" result="BackgroundImageFix"/>
<feColorMatrix in="SourceAlpha" type="matrix" values="0 0 0 0 0 0 0 0 0 0 0 0 0 0 0 0 0 0 127 0" result="hardAlpha"/>
<feOffset dy="15.6014"/>
<feGaussianBlur stdDeviation="15.6014"/>
<feComposite in2="hardAlpha" operator="out"/>
<feColorMatrix type="matrix" values="0 0 0 0 0.556863 0 0 0 0 0.607843 0 0 0 0 0.682353 0 0 0 0.2 0"/>
<feBlend mode="normal" in2="BackgroundImageFix" result="effect1_dropShadow_1002_2166"/>
<feBlend mode="normal" in="SourceGraphic" in2="effect1_dropShadow_1002_2166" result="shape"/>
<feColorMatrix in="SourceAlpha" type="matrix" values="0 0 0 0 0 0 0 0 0 0 0 0 0 0 0 0 0 0 127 0" result="hardAlpha"/>
<feMorphology radius="0.780069" operator="erode" in="SourceAlpha" result="effect2_innerShadow_1002_2166"/>
<feOffset dy="3.12027"/>
<feGaussianBlur stdDeviation="3.90034"/>
<feComposite in2="hardAlpha" operator="arithmetic" k2="-1" k3="1"/>
<feColorMatrix type="matrix" values="0 0 0 0 0.759144 0 0 0 0 0.714583 0 0 0 0 0.875 0 0 0 1 0"/>
<feBlend mode="normal" in2="shape" result="effect2_innerShadow_1002_2166"/>
</filter>
<linearGradient id="paint0_linear_1002_2166" x1="94.5382" y1="16.1499" x2="99.29" y2="71.7867" gradientUnits="userSpaceOnUse">
<stop stop-color="#DEE2E7"/>
<stop offset="1" stop-color="#DBE0E7"/>
</linearGradient>
<linearGradient id="paint1_linear_1002_2166" x1="205.963" y1="14.0839" x2="207.294" y2="59.1432" gradientUnits="userSpaceOnUse">
<stop stop-color="white" stop-opacity="0.47"/>
<stop offset="1" stop-color="#F6F1F1"/>
</linearGradient>
</defs>
</svg>
